<svg width="512" height="512" viewBox="0 0 512 512" fill="none" xmlns="http://www.w3.org/2000/svg">
  <!-- Fondo Azul con esquinas redondeadas -->
  <rect width="512" height="512" rx="120" fill="#2b82bd"/>
  
  <!-- Isotipo en Blanco -->
  <g transform="translate(0, 5)">
    <path fill="white" d="M256 80C173.2 80 106 147.2 106 230V330C106 357.6 128.4 380 156 380H180V230H146C146 169.3 195.3 120 256 120C316.7 120 366 169.3 366 230H332V380H356C383.6 380 406 357.6 406 330V230C406 147.2 338.8 80 256 80Z"/>
    <path fill="white" d="M256 180C210 180 160 220 160 300C160 380 200 420 256 420C312 420 352 380 352 300C352 220 302 180 256 180ZM256 370C225 370 205 345 205 300C205 255 225 230 256 230C287 230 307 255 307 300C307 345 287 370 256 370Z"/>
  </g>
</svg>
